<?xml version="1.0" encoding="UTF-8"?>
<svg version="1.1" xmlns="http://www.w3.org/2000/svg" width="638" height="169">
<path d="M0 0 C210.54 0 421.08 0 638 0 C638 55.77 638 111.54 638 169 C427.46 169 216.92 169 0 169 C0 113.23 0 57.46 0 0 Z " fill="#231F20" transform="translate(0,0)"/>
<path d="M0 0 C78.87 0 157.74 0 239 0 C239 6.93 239 13.86 239 21 C160.13 21 81.26 21 0 21 C0 14.07 0 7.14 0 0 Z " fill="#4C4741" transform="translate(330,100)"/>
<path d="M0 0 C15.51 0 31.02 0 47 0 C47 21.45 47 42.9 47 65 C31.49 65 15.98 65 0 65 C0 43.55 0 22.1 0 0 Z " fill="#FAF8F8" transform="translate(38,52)"/>
<path d="M0 0 C5.8575 -0.061875 11.715 -0.12375 17.75 -0.1875 C19.59303711 -0.21481201 21.43607422 -0.24212402 23.33496094 -0.27026367 C24.80142563 -0.27902835 26.26789763 -0.28667233 27.734375 -0.29296875 C28.49121582 -0.30831665 29.24805664 -0.32366455 30.02783203 -0.33947754 C33.26682606 -0.34108525 35.60259942 -0.21281092 38.4855957 1.33105469 C40.81277226 3.89571355 40.49523452 6.04655933 40.4375 9.4375 C40.43621094 10.57058594 40.43492187 11.70367187 40.43359375 12.87109375 C39.97421855 16.18604451 39.24277885 17.57875069 37 20 C37.4846875 20.36222656 37.969375 20.72445312 38.46875 21.09765625 C40.6756878 23.83943868 40.46841824 25.95955857 40.5 29.4375 C40.5309375 30.57058594 40.561875 31.70367187 40.59375 32.87109375 C40 36 40 36 37.97192383 38.17114258 C34.2108794 40.48560769 31.13230229 40.51049432 26.85546875 40.390625 C26.17246704 40.38659668 25.48946533 40.38256836 24.7857666 40.37841797 C22.25273484 40.35760816 19.72008832 40.3017626 17.1875 40.25 C11.515625 40.1675 5.84375 40.085 0 40 C0 26.8 0 13.6 0 0 Z " fill="#F5F7F6" transform="translate(531,51)"/>
<path d="M0 0 C0.7381041 0.00233139 1.47620819 0.00466278 2.23667908 0.00706482 C3.79079818 0.01677338 5.34488343 0.03849424 6.89868164 0.0715332 C9.27348375 0.12101333 11.64621282 0.13302056 14.02148438 0.13867188 C15.53517822 0.15275699 17.04885415 0.16896109 18.5625 0.1875 C19.26987808 0.1928627 19.97725616 0.1982254 20.70606995 0.20375061 C24.32874227 0.29094036 27.19048727 0.45520019 30.21484375 2.55859375 C31.69316635 5.51523894 31.27517158 8.30089112 31.21484375 11.55859375 C26.75984375 12.05359375 26.75984375 12.05359375 22.21484375 12.55859375 C22.21484375 11.23859375 22.21484375 9.91859375 22.21484375 8.55859375 C13.96484375 8.55859375 5.71484375 8.55859375 -2.78515625 8.55859375 C-2.78515625 16.47859375 -2.78515625 24.39859375 -2.78515625 32.55859375 C5.46484375 32.55859375 13.71484375 32.55859375 22.21484375 32.55859375 C22.21484375 29.91859375 22.21484375 27.27859375 22.21484375 24.55859375 C17.59484375 24.55859375 12.97484375 24.55859375 8.21484375 24.55859375 C8.21484375 22.24859375 8.21484375 19.93859375 8.21484375 17.55859375 C15.80484375 17.55859375 23.39484375 17.55859375 31.21484375 17.55859375 C31.29734375 20.61109375 31.37984375 23.66359375 31.46484375 26.80859375 C31.50125977 27.76411133 31.53767578 28.71962891 31.57519531 29.70410156 C31.58518555 30.46561523 31.59517578 31.22712891 31.60546875 32.01171875 C31.62641602 32.78676758 31.64736328 33.56181641 31.66894531 34.36035156 C30.99997756 37.59873095 29.91186859 38.65672989 27.21484375 40.55859375 C24.3748082 40.9685751 21.92883502 41.1436686 19.08984375 41.125 C17.91397705 41.13429787 17.91397705 41.13429787 16.71435547 41.14378357 C15.06023397 41.15087401 13.40604098 41.14772114 11.75195312 41.13500977 C9.22262226 41.12113642 6.69698753 41.15522728 4.16796875 41.19335938 C2.55859285 41.19431057 0.94921232 41.19245174 -0.66015625 41.1875 C-1.41441895 41.20075821 -2.16868164 41.21401642 -2.94580078 41.22767639 C-6.60166934 41.16291711 -8.44395139 40.84973142 -11.25756836 38.44897461 C-13.92294742 33.40575538 -13.41394714 28.23416443 -13.36157227 22.63867188 C-13.34768892 20.56347704 -13.38181804 18.49278425 -13.41992188 16.41796875 C-13.41798828 15.103125 -13.41605469 13.78828125 -13.4140625 12.43359375 C-13.4147876 11.23476563 -13.4155127 10.0359375 -13.41625977 8.80078125 C-11.94565357 1.24579083 -6.9601721 -0.19273772 0 0 Z " fill="#EEF0F0" transform="translate(123.78515625,50.44140625)"/>
<path d="M0 0 C1.97226562 -0.00290039 1.97226562 -0.00290039 3.984375 -0.00585938 C5.0043457 0.01287231 5.0043457 0.01287231 6.04492188 0.03198242 C8.11987007 0.06632135 10.19055909 0.05262614 12.265625 0.03320312 C22.29599954 0.10695588 22.29599954 0.10695588 26.03515625 2.46118164 C28.125 4.62890625 28.125 4.62890625 28.4375 7.87890625 C28.334375 8.78640625 28.23125 9.69390625 28.125 10.62890625 C25.485 11.28890625 22.845 11.94890625 20.125 12.62890625 C20.125 10.97890625 20.125 9.32890625 20.125 7.62890625 C12.205 7.62890625 4.285 7.62890625 -3.875 7.62890625 C-3.875 10.59890625 -3.875 13.56890625 -3.875 16.62890625 C-3.01221436 16.6131958 -2.14942871 16.59748535 -1.26049805 16.58129883 C1.94309267 16.5301467 5.14647515 16.49254465 8.3503418 16.46411133 C9.73647919 16.44903228 11.12256894 16.42856575 12.50854492 16.40258789 C14.50158146 16.36616909 16.49496723 16.35077607 18.48828125 16.3359375 C19.68751221 16.32022705 20.88674316 16.3045166 22.12231445 16.28833008 C25.125 16.62890625 25.125 16.62890625 27.01269531 17.90527344 C28.99409231 20.97565596 28.59514802 24.53151582 28.5625 28.06640625 C28.5924707 29.21206055 28.5924707 29.21206055 28.62304688 30.38085938 C28.62240234 31.12142578 28.62175781 31.86199219 28.62109375 32.625 C28.62387329 33.63324829 28.62387329 33.63324829 28.62670898 34.66186523 C27.8564403 37.68184324 26.63185297 38.80010354 24.125 40.62890625 C21.47887951 41.00308232 19.25927127 41.14464936 16.62109375 41.08984375 C15.90139908 41.08892731 15.18170441 41.08801086 14.44020081 41.08706665 C12.92303854 41.08103935 11.40588769 41.0653192 9.88891602 41.04052734 C7.56677439 41.00397353 5.24622771 40.99950843 2.92382812 41 C1.44790288 40.99016977 -0.02801157 40.97851318 -1.50390625 40.96484375 C-2.54461021 40.96150528 -2.54461021 40.96150528 -3.6063385 40.95809937 C-7.23974897 40.88650424 -8.76625745 40.70140128 -11.875 38.62890625 C-12.38671875 36.46484375 -12.38671875 36.46484375 -12.5625 34.00390625 C-12.62824219 33.18664062 -12.69398438 32.369375 -12.76171875 31.52734375 C-12.79910156 30.90085937 -12.83648437 30.274375 -12.875 29.62890625 C-8.915 29.13390625 -8.915 29.13390625 -4.875 28.62890625 C-4.875 29.94890625 -4.875 31.26890625 -4.875 32.62890625 C3.375 32.62890625 11.625 32.62890625 20.125 32.62890625 C20.125 29.98890625 20.125 27.34890625 20.125 24.62890625 C19.35833008 24.63937988 18.59166016 24.64985352 17.80175781 24.66064453 C14.32620526 24.70223324 10.85070509 24.72824176 7.375 24.75390625 C6.1684375 24.77066406 4.961875 24.78742188 3.71875 24.8046875 C2.55859375 24.81113281 1.3984375 24.81757812 0.203125 24.82421875 C-0.86518555 24.83469238 -1.93349609 24.84516602 -3.03417969 24.85595703 C-5.88488676 24.62811606 -7.49193824 24.16765976 -9.875 22.62890625 C-12.20397768 19.34750319 -12.23494717 16.1374765 -12.3125 12.19140625 C-12.37244141 10.52271484 -12.37244141 10.52271484 -12.43359375 8.8203125 C-11.21113701 1.83606666 -6.54869309 -0.0039609 0 0 Z " fill="#F3F5F5" transform="translate(341.875,50.37109375)"/>
<path d="M0 0 C0.66914429 -0.00241196 1.33828857 -0.00482391 2.02770996 -0.00730896 C3.43633985 -0.00633354 4.84500951 0.00698777 6.25341797 0.03198242 C8.40074807 0.06631827 10.54396249 0.05262699 12.69140625 0.03320312 C14.06512155 0.04010214 15.43882631 0.04977506 16.8125 0.0625 C18.05322266 0.07337646 19.29394531 0.08425293 20.57226562 0.09545898 C24.47098625 0.7192657 26.16190832 1.83384449 28.90625 4.62890625 C29.39453125 7.20703125 29.39453125 7.20703125 29.21875 9.87890625 C29.17363281 10.7709375 29.12851562 11.66296875 29.08203125 12.58203125 C28.99501953 13.59523438 28.99501953 13.59523438 28.90625 14.62890625 C24.45125 15.12390625 24.45125 15.12390625 19.90625 15.62890625 C19.90625 13.31890625 19.90625 11.00890625 19.90625 8.62890625 C12.64625 8.62890625 5.38625 8.62890625 -2.09375 8.62890625 C-2.09375 16.54890625 -2.09375 24.46890625 -2.09375 32.62890625 C5.16625 32.62890625 12.42625 32.62890625 19.90625 32.62890625 C19.90625 29.98890625 19.90625 27.34890625 19.90625 24.62890625 C27.78125 25.50390625 27.78125 25.50390625 28.90625 26.62890625 C29.1796875 28.7734375 29.1796875 28.7734375 29.28125 31.44140625 C29.33023438 32.31410156 29.37921875 33.18679687 29.4296875 34.0859375 C28.90625 36.62890625 28.90625 36.62890625 26.83276367 38.75244141 C23.17235673 41.09947467 20.8863748 41.15879456 16.55859375 41.1953125 C15.86488174 41.20151108 15.17116974 41.20770966 14.45643616 41.21409607 C12.99660642 41.22117091 11.5366956 41.21806097 10.0769043 41.20532227 C7.84598606 41.19142018 5.61923842 41.22559083 3.38867188 41.26367188 C1.96614481 41.26462288 0.54361251 41.26276526 -0.87890625 41.2578125 C-2.81068726 41.25890015 -2.81068726 41.25890015 -4.78149414 41.26000977 C-8.09375 40.62890625 -8.09375 40.62890625 -10.50927734 38.51928711 C-13.26157733 33.49856607 -12.72268015 28.31935491 -12.67016602 22.70898438 C-12.65628267 20.63378954 -12.69041179 18.56309675 -12.72851562 16.48828125 C-12.72658203 15.1734375 -12.72464844 13.85859375 -12.72265625 12.50390625 C-12.72338135 11.30507813 -12.72410645 10.10625 -12.72485352 8.87109375 C-11.31558887 1.63123512 -6.82922266 -0.0039911 0 0 Z " fill="#EFF0EE" transform="translate(402.09375,50.37109375)"/>
<path d="M0 0 C7 0 7 0 8.93359375 1.28515625 C9.42988281 1.87167969 9.92617187 2.45820312 10.4375 3.0625 C12.73622074 5.60986824 15.01079699 7.96241316 17.625 10.1875 C23.55957266 15.30108434 29.25588357 20.67472539 35 26 C35.33 17.42 35.66 8.84 36 0 C38.64 0 41.28 0 44 0 C44 13.2 44 26.4 44 40 C36.13829787 40 36.13829787 40 32.375 36.25 C31.53324219 35.43660156 30.69148438 34.62320313 29.82421875 33.78515625 C28.89222656 32.86605469 27.96023437 31.94695312 27 31 C24.74391784 28.87975349 22.46507545 26.78460299 20.1875 24.6875 C19.64851074 24.18444336 19.10952148 23.68138672 18.55419922 23.16308594 C18.03486816 22.68000977 17.51553711 22.19693359 16.98046875 21.69921875 C16.52567139 21.27471436 16.07087402 20.85020996 15.60229492 20.4128418 C13.46775141 18.53068374 11.22222627 16.77778102 9 15 C8.67 23.25 8.34 31.5 8 40 C5.36 40 2.72 40 0 40 C0 26.8 0 13.6 0 0 Z " fill="#F7F7F3" transform="translate(210,51)"/>
<path d="M0 0 C12.54 0 25.08 0 38 0 C38 2.31 38 4.62 38 7 C28.43 7 18.86 7 9 7 C9 9.97 9 12.94 9 16 C14.61 16 20.22 16 26 16 C26 18.31 26 20.62 26 23 C20.39 23 14.78 23 9 23 C9 25.97 9 28.94 9 32 C18.9 32 28.8 32 39 32 C39 34.64 39 37.28 39 40 C26.13 40 13.26 40 0 40 C0 26.8 0 13.6 0 0 Z " fill="#F5F6F6" transform="translate(165,51)"/>
<path d="M0 0 C2.97 0 5.94 0 9 0 C9 10.56 9 21.12 9 32 C16.92 32 24.84 32 33 32 C33 21.44 33 10.88 33 0 C35.97 0 38.94 0 42 0 C42.12371396 5.05362021 42.21439046 10.10635702 42.2746582 15.16113281 C42.29978367 16.88003901 42.33389047 18.59883856 42.37719727 20.31738281 C42.43794029 22.78998114 42.46622762 25.26116606 42.48828125 27.734375 C42.51408768 28.50118591 42.5398941 29.26799683 42.56648254 30.05804443 C42.56840626 33.72788154 42.31349162 35.62197256 39.94238281 38.48120117 C36.37153812 40.32439938 33.36530695 40.59493786 29.43359375 40.56640625 C28.7176857 40.57260483 28.00177765 40.57880341 27.26417542 40.58518982 C25.75726679 40.59226624 24.25027962 40.58915196 22.7434082 40.57641602 C20.44010863 40.56251574 18.14084945 40.59668191 15.83789062 40.63476562 C14.36979068 40.63571663 12.90168565 40.633859 11.43359375 40.62890625 C10.74808945 40.64216446 10.06258514 40.65542267 9.35630798 40.66908264 C5.90753676 40.60199033 4.23378182 40.19451022 1.55981445 37.96972656 C-0.41911911 34.20204025 -0.5064067 31.00426599 -0.390625 26.85546875 C-0.38496521 26.08568192 -0.37930542 25.31589508 -0.37347412 24.52278137 C-0.35117872 22.07704057 -0.30099875 19.6327939 -0.25 17.1875 C-0.229926 15.52410978 -0.2116768 13.86069647 -0.1953125 12.19726562 C-0.15133684 8.13093942 -0.08235979 4.06572256 0 0 Z " fill="#F5F7F4" transform="translate(479,51)"/>
<path d="M0 0 C14.19 0 28.38 0 43 0 C43 2.31 43 4.62 43 7 C42.67 7.33 42.34 7.66 42 8 C36.72 8 31.44 8 26 8 C26 18.56 26 29.12 26 40 C23.03 40 20.06 40 17 40 C17 29.11 17 18.22 17 7 C11.39 7 5.78 7 0 7 C0 4.69 0 2.38 0 0 Z " fill="#F6F4F0" transform="translate(262,51)"/>
<path d="M0 0 C2.97 0 5.94 0 9 0 C9 10.56 9 21.12 9 32 C18.24 32 27.48 32 37 32 C37 34.64 37 37.28 37 40 C24.79 40 12.58 40 0 40 C0 26.8 0 13.6 0 0 Z " fill="#F2F5F4" transform="translate(440,51)"/>
<path d="M0 0 C0.67530258 -0.00145523 1.35060516 -0.00291046 2.04637146 -0.00440979 C3.46935353 -0.00275445 4.89235417 0.00876623 6.31518555 0.02954102 C8.49279718 0.05854984 10.66798051 0.05013491 12.84570312 0.03710938 C14.23048057 0.0433458 15.61525035 0.05173601 17 0.0625 C18.25756104 0.07224854 19.51512207 0.08199707 20.81079102 0.09204102 C23.93359375 0.49609375 23.93359375 0.49609375 25.85131836 1.82788086 C27.50127105 4.37110819 27.18990327 6.54853426 26.93359375 9.49609375 C25.93359375 10.49609375 25.93359375 10.49609375 22.87109375 10.55859375 C21.90171875 10.53796875 20.93234375 10.51734375 19.93359375 10.49609375 C19.93359375 9.50609375 19.93359375 8.51609375 19.93359375 7.49609375 C12.01359375 7.49609375 4.09359375 7.49609375 -4.06640625 7.49609375 C-4.06640625 14.75609375 -4.06640625 22.01609375 -4.06640625 29.49609375 C-1.42640625 29.49609375 1.21359375 29.49609375 3.93359375 29.49609375 C3.93359375 31.47609375 3.93359375 33.45609375 3.93359375 35.49609375 C1.97555868 35.54998462 0.01710466 35.58883592 -1.94140625 35.62109375 C-3.03195313 35.64429688 -4.1225 35.6675 -5.24609375 35.69140625 C-8.06640625 35.49609375 -8.06640625 35.49609375 -10.06640625 33.49609375 C-11.86948266 28.27229494 -11.33269824 22.44863891 -11.37890625 16.99609375 C-11.40791016 15.85527344 -11.43691406 14.71445313 -11.46679688 13.5390625 C-11.47517578 12.44207031 -11.48355469 11.34507813 -11.4921875 10.21484375 C-11.51406128 8.7134082 -11.51406128 8.7134082 -11.53637695 7.18164062 C-11.06640625 4.49609375 -11.06640625 4.49609375 -9.48144531 2.16967773 C-6.20318405 -0.10210562 -3.96932179 -0.00584359 0 0 Z " fill="#2E2A2B" transform="translate(53.06640625,56.50390625)"/>
<path d="M0 0 C4.95 0 9.9 0 15 0 C15.08112454 2.58396679 15.14054748 5.16537568 15.1875 7.75 C15.21263672 8.47960937 15.23777344 9.20921875 15.26367188 9.9609375 C15.3069153 13.13212204 15.18433833 15.60143064 13.84375 18.5 C11.27400629 20.59063895 9.57981626 20.40375606 6.3125 20.25 C5.31863281 20.21390625 4.32476562 20.1778125 3.30078125 20.140625 C2.16189453 20.07101563 2.16189453 20.07101563 1 20 C1 18.02 1 16.04 1 14 C2.98 14 4.96 14 7 14 C7 11.36 7 8.72 7 6 C4.36 6 1.72 6 -1 6 C-0.67 4.02 -0.34 2.04 0 0 Z " fill="#2A2627" transform="translate(66,72)"/>
<path d="M0 0 C3.64581687 -0.02887512 7.29160463 -0.04675585 10.9375 -0.0625 C12.49887695 -0.07506836 12.49887695 -0.07506836 14.09179688 -0.08789062 C15.57583008 -0.09272461 15.57583008 -0.09272461 17.08984375 -0.09765625 C18.46450806 -0.10551147 18.46450806 -0.10551147 19.86694336 -0.11352539 C22 0 22 0 23 1 C23 3.64 23 6.28 23 9 C15.41 9 7.82 9 0 9 C0 6.03 0 3.06 0 0 Z " fill="#262024" transform="translate(540,74)"/>
<path d="M0 0 C3.64581687 -0.02887512 7.29160463 -0.04675585 10.9375 -0.0625 C12.49887695 -0.07506836 12.49887695 -0.07506836 14.09179688 -0.08789062 C15.57583008 -0.09272461 15.57583008 -0.09272461 17.08984375 -0.09765625 C18.46450806 -0.10551147 18.46450806 -0.10551147 19.86694336 -0.11352539 C22 0 22 0 23 1 C23.125 4.5 23.125 4.5 23 8 C22 9 22 9 19.86694336 9.11352539 C18.95050049 9.10828857 18.03405762 9.10305176 17.08984375 9.09765625 C16.10048828 9.09443359 15.11113281 9.09121094 14.09179688 9.08789062 C13.05087891 9.07951172 12.00996094 9.07113281 10.9375 9.0625 C9.89271484 9.05798828 8.84792969 9.05347656 7.77148438 9.04882812 C5.1809334 9.03699913 2.59049441 9.02051689 0 9 C0 6.03 0 3.06 0 0 Z " fill="#262025" transform="translate(540,58)"/>
<path d="M0 0 C3.63 0 7.26 0 11 0 C11.70369488 8.31402473 11.21141888 14.10082047 6.80078125 21.26953125 C5 23 5 23 2.29296875 23.26171875 C1.53628906 23.17535156 0.77960938 23.08898437 0 23 C1.31061591 18.76570244 2.94356259 14.92592596 5 11 C3.35 10.67 1.7 10.34 0 10 C0 6.7 0 3.4 0 0 Z " fill="#EFF3F1" transform="translate(312,51)"/>
<path d="M0 0 C1.65 0 3.3 0 5 0 C8.89640035 20.24736611 8.89640035 20.24736611 4 28 C3.34 28 2.68 28 2 28 C-3.28959256 19.62481177 -0.90426547 9.39790189 0 0 Z " fill="#ED232A" transform="translate(59,77)"/>
<path d="M0 0 C1.65 0 3.3 0 5 0 C5.66 1.65 6.32 3.3 7 5 C7.66 3.35 8.32 1.7 9 0 C10.65 0 12.3 0 14 0 C14 4.62 14 9.24 14 14 C12.68 14 11.36 14 10 14 C9.67 13.01 9.34 12.02 9 11 C8.67 11.99 8.34 12.98 8 14 C7.01 14 6.02 14 5 14 C4.67 12.68 4.34 11.36 4 10 C3.67 11.32 3.34 12.64 3 14 C2.01 14 1.02 14 0 14 C0 9.38 0 4.76 0 0 Z " fill="#D7C40D" transform="translate(334,103)"/>
<path d="M0 0 C2.3125 1.625 2.3125 1.625 4 4 C4.48746608 7.34262452 4.31565201 9.29442492 2.9375 12.375 C1 14 1 14 -2.5625 14.4375 C-3.696875 14.293125 -4.83125 14.14875 -6 14 C-8.53637054 10.19544419 -8.59473663 7.46052469 -8 3 C-6.0008288 -0.36702517 -3.74658968 -0.63966165 0 0 Z " fill="#E1DA08" transform="translate(562,103)"/>
<path d="M0 0 C2.3125 1.625 2.3125 1.625 4 4 C4.48746608 7.34262452 4.31565201 9.29442492 2.9375 12.375 C1 14 1 14 -2.5625 14.4375 C-3.696875 14.293125 -4.83125 14.14875 -6 14 C-8.53637054 10.19544419 -8.59473663 7.46052469 -8 3 C-6.0008288 -0.36702517 -3.74658968 -0.63966165 0 0 Z " fill="#E1DA08" transform="translate(464,103)"/>
<path d="M0 0 C1.32 0 2.64 0 4 0 C4 1.65 4 3.3 4 5 C4.99 5 5.98 5 7 5 C7 3.35 7 1.7 7 0 C8.32 0 9.64 0 11 0 C11 4.62 11 9.24 11 14 C9.68 14 8.36 14 7 14 C7 12.35 7 10.7 7 9 C5.68 9 4.36 9 3 9 C3 10.65 3 12.3 3 14 C2.01 14 1.02 14 0 14 C0 9.38 0 4.76 0 0 Z " fill="#DFD409" transform="translate(433,103)"/>
<path d="M0 0 C1.32 0 2.64 0 4 0 C4.99 1.98 5.98 3.96 7 6 C7.33 4.02 7.66 2.04 8 0 C8.99 0 9.98 0 11 0 C11 4.62 11 9.24 11 14 C9.68 14 8.36 14 7 14 C5.25 11.5 5.25 11.5 4 9 C3.67 10.65 3.34 12.3 3 14 C2.01 14 1.02 14 0 14 C0 9.38 0 4.76 0 0 Z " fill="#E9E407" transform="translate(471,103)"/>
<path d="M0 0 C1.32 0 2.64 0 4 0 C4.99 1.98 5.98 3.96 7 6 C7.33 4.02 7.66 2.04 8 0 C8.99 0 9.98 0 11 0 C11 4.62 11 9.24 11 14 C9.68 14 8.36 14 7 14 C5.25 11.5 5.25 11.5 4 9 C3.67 10.65 3.34 12.3 3 14 C2.01 14 1.02 14 0 14 C0 9.38 0 4.76 0 0 Z " fill="#E9E407" transform="translate(363,103)"/>
<path d="M0 0 C1.32 0 2.64 0 4 0 C4 3.63 4 7.26 4 11 C4.99 11 5.98 11 7 11 C7 7.37 7 3.74 7 0 C8.32 0 9.64 0 11 0 C11.08114106 1.77007714 11.13925505 3.54122098 11.1875 5.3125 C11.22230469 6.29863281 11.25710938 7.28476563 11.29296875 8.30078125 C11 11 11 11 9.6796875 12.83203125 C7.08452771 14.63657259 5.06249332 14.39095659 2 14 C-0.28062828 10.57905758 -0.21925007 9.31812778 -0.125 5.3125 C-0.10695313 4.31863281 -0.08890625 3.32476562 -0.0703125 2.30078125 C-0.04710937 1.54152344 -0.02390625 0.78226562 0 0 Z " fill="#D5C10D" transform="translate(516,103)"/>
<path d="M0 0 C1.65 0.33 3.3 0.66 5 1 C5.99 5.29 6.98 9.58 8 14 C6.68 14 5.36 14 4 14 C4 13.01 4 12.02 4 11 C2.68 11 1.36 11 0 11 C0 11.99 0 12.98 0 14 C-1.32 14 -2.64 14 -4 14 C-3.00956295 9.16371695 -2.04301154 4.52381127 0 0 Z " fill="#DFDE07" transform="translate(410,103)"/>
<path d="M0 0 C2.64 0 5.28 0 8 0 C8 0.99 8 1.98 8 3 C6.35 3 4.7 3 3 3 C3 3.99 3 4.98 3 6 C4.65 6 6.3 6 8 6 C8 6.99 8 7.98 8 9 C6.68 9 5.36 9 4 9 C4 9.66 4 10.32 4 11 C5.65 11 7.3 11 9 11 C9 11.99 9 12.98 9 14 C6.03 14 3.06 14 0 14 C0 9.38 0 4.76 0 0 Z " fill="#D2C90B" transform="translate(351,103)"/>
<path d="M0 0 C7.59 0 15.18 0 23 0 C23 1.32 23 2.64 23 4 C22.2575 3.814375 21.515 3.62875 20.75 3.4375 C18.15451124 2.83123722 18.15451124 2.83123722 16.28125 3.46875 C13.0827368 4.21360924 10.02857014 4.09285713 6.75 4.0625 C5.48671875 4.05347656 4.2234375 4.04445313 2.921875 4.03515625 C1.95765625 4.02355469 0.9934375 4.01195313 0 4 C0 2.68 0 1.36 0 0 Z " fill="#F4999B" transform="translate(40,109)"/>
<path d="M0 0 C3.3 0 6.6 0 10 0 C10 1.32 10 2.64 10 4 C9.01 4 8.02 4 7 4 C7 7.3 7 10.6 7 14 C5.68 14 4.36 14 3 14 C3 10.7 3 7.4 3 4 C2.01 4 1.02 4 0 4 C0 2.68 0 1.36 0 0 Z " fill="#D7CE0A" transform="translate(503,103)"/>
<path d="M0 0 C7 0 7 0 9 1 C9.59355614 3.64860427 9.74209269 6.29197322 10 9 C9.01 9.495 9.01 9.495 8 10 C7.731875 9.030625 7.46375 8.06125 7.1875 7.0625 C6.795625 6.051875 6.40375 5.04125 6 4 C5.01 3.67 4.02 3.34 3 3 C3 5.97 3 8.94 3 12 C3.99 12 4.98 12 6 12 C6 12.66 6 13.32 6 14 C4.02 14 2.04 14 0 14 C0 9.38 0 4.76 0 0 Z " fill="#DFE104" transform="translate(531,103)"/>
<path d="M0 0 C2.64 0 5.28 0 8 0 C8 0.99 8 1.98 8 3 C6.35 3 4.7 3 3 3 C3 3.99 3 4.98 3 6 C4.65 6 6.3 6 8 6 C8 6.99 8 7.98 8 9 C6.68 9 5.36 9 4 9 C4 10.65 4 12.3 4 14 C2.68 14 1.36 14 0 14 C0 9.38 0 4.76 0 0 Z " fill="#E6DA08" transform="translate(396,103)"/>
<path d="M0 0 C1.65 0 3.3 0 5 0 C5 2.97 5 5.94 5 9 C5.66 9 6.32 9 7 9 C7.33 8.34 7.66 7.68 8 7 C8 9.31 8 11.62 8 14 C7.01 14 6.02 14 5 14 C4.67 12.68 4.34 11.36 4 10 C3.67 11.32 3.34 12.64 3 14 C2.01 14 1.02 14 0 14 C0 9.38 0 4.76 0 0 Z " fill="#E4E006" transform="translate(334,103)"/>
<path d="M0 0 C0.78375 0.04125 1.5675 0.0825 2.375 0.125 C2.375 1.115 2.375 2.105 2.375 3.125 C1.055 3.125 -0.265 3.125 -1.625 3.125 C0.00912443 4.83340281 1.24406094 6.05953047 3.375 7.125 C3.41754356 9.12454746 3.41580783 11.12541636 3.375 13.125 C2.375 14.125 2.375 14.125 -1.1875 14.1875 C-2.321875 14.166875 -3.45625 14.14625 -4.625 14.125 C-4.625 13.135 -4.625 12.145 -4.625 11.125 C-2.975 11.125 -1.325 11.125 0.375 11.125 C0.375 10.465 0.375 9.805 0.375 9.125 C-2.1 8.135 -2.1 8.135 -4.625 7.125 C-4.75 4.75 -4.75 4.75 -4.625 2.125 C-2.625 0.125 -2.625 0.125 0 0 Z " fill="#EAE107" transform="translate(496.625,102.875)"/>
<path d="M0 0 C0.78375 0.04125 1.5675 0.0825 2.375 0.125 C2.375 1.115 2.375 2.105 2.375 3.125 C1.055 3.125 -0.265 3.125 -1.625 3.125 C0.00912443 4.83340281 1.24406094 6.05953047 3.375 7.125 C3.41754356 9.12454746 3.41580783 11.12541636 3.375 13.125 C2.375 14.125 2.375 14.125 -1.1875 14.1875 C-2.321875 14.166875 -3.45625 14.14625 -4.625 14.125 C-4.625 13.135 -4.625 12.145 -4.625 11.125 C-2.975 11.125 -1.325 11.125 0.375 11.125 C0.375 10.465 0.375 9.805 0.375 9.125 C-2.1 8.135 -2.1 8.135 -4.625 7.125 C-4.75 4.75 -4.75 4.75 -4.625 2.125 C-2.625 0.125 -2.625 0.125 0 0 Z " fill="#EAE107" transform="translate(425.625,102.875)"/>
<path d="M0 0 C0.78375 0.04125 1.5675 0.0825 2.375 0.125 C2.375 1.115 2.375 2.105 2.375 3.125 C1.055 3.125 -0.265 3.125 -1.625 3.125 C0.00912443 4.83340281 1.24406094 6.05953047 3.375 7.125 C3.41754356 9.12454746 3.41580783 11.12541636 3.375 13.125 C2.375 14.125 2.375 14.125 -1.1875 14.1875 C-2.321875 14.166875 -3.45625 14.14625 -4.625 14.125 C-4.625 13.135 -4.625 12.145 -4.625 11.125 C-2.975 11.125 -1.325 11.125 0.375 11.125 C0.375 10.465 0.375 9.805 0.375 9.125 C-2.1 8.135 -2.1 8.135 -4.625 7.125 C-4.75 4.75 -4.75 4.75 -4.625 2.125 C-2.625 0.125 -2.625 0.125 0 0 Z " fill="#EAE107" transform="translate(382.625,102.875)"/>
<path d="M0 0 C0.66 0.33 1.32 0.66 2 1 C2.36717663 8.4659249 2.36717663 8.4659249 0.625 11 C-1 12 -1 12 -3 12 C-3 11.34 -3 10.68 -3 10 C-3.99 10 -4.98 10 -6 10 C-6 7.03 -6 4.06 -6 1 C-4.68 1.33 -3.36 1.66 -2 2 C-0.75 4.5625 -0.75 4.5625 0 7 C0 4.69 0 2.38 0 0 Z " fill="#DFBC11" transform="translate(540,105)"/>
<path d="M0 0 C2.74086056 -0.22223194 4.43963721 -0.34781139 6.8125 1.125 C8.55957504 3.88353953 8.39203417 5.79838764 8 9 C6.875 11.375 6.875 11.375 5 13 C1.8125 13.25 1.8125 13.25 -1 13 C0 11 0 11 3 10 C3 7.69 3 5.38 3 3 C1.68 3 0.36 3 -1 3 C-0.67 2.01 -0.34 1.02 0 0 Z " fill="#E9E704" transform="translate(558,104)"/>
<path d="M0 0 C2.74086056 -0.22223194 4.43963721 -0.34781139 6.8125 1.125 C8.55957504 3.88353953 8.39203417 5.79838764 8 9 C6.875 11.375 6.875 11.375 5 13 C1.8125 13.25 1.8125 13.25 -1 13 C0 11 0 11 3 10 C3 7.69 3 5.38 3 3 C1.68 3 0.36 3 -1 3 C-0.67 2.01 -0.34 1.02 0 0 Z " fill="#E9E704" transform="translate(460,104)"/>
<path d="M0 0 C0.99 0 1.98 0 3 0 C3 4.62 3 9.24 3 14 C1.68 14 0.36 14 -1 14 C-1.66 12.02 -2.32 10.04 -3 8 C-2.34 7.34 -1.68 6.68 -1 6 C-0.60235737 4.01178687 -0.26224651 2.01055661 0 0 Z " fill="#F0D90A" transform="translate(479,103)"/>
<path d="M0 0 C0.99 0 1.98 0 3 0 C3 4.62 3 9.24 3 14 C1.68 14 0.36 14 -1 14 C-1.66 12.02 -2.32 10.04 -3 8 C-2.34 7.34 -1.68 6.68 -1 6 C-0.60235737 4.01178687 -0.26224651 2.01055661 0 0 Z " fill="#F0D90A" transform="translate(371,103)"/>
<path d="M0 0 C1.98 0 3.96 0 6 0 C6 0.99 6 1.98 6 3 C7.32 3 8.64 3 10 3 C10 2.01 10 1.02 10 0 C11.98 0 13.96 0 16 0 C16 1.32 16 2.64 16 4 C10.72 4 5.44 4 0 4 C0 2.68 0 1.36 0 0 Z " fill="#F38685" transform="translate(65,109)"/>
<path d="M0 0 C0.99 0 1.98 0 3 0 C3 4.29 3 8.58 3 13 C2.01 13 1.02 13 0 13 C0 8.71 0 4.42 0 0 Z " fill="#EEF004" transform="translate(546,104)"/>
<path d="M0 0 C0.99 0 1.98 0 3 0 C3 4.29 3 8.58 3 13 C2.01 13 1.02 13 0 13 C0 8.71 0 4.42 0 0 Z " fill="#EEF004" transform="translate(448,104)"/>
<path d="M0 0 C2.0625 0.4375 2.0625 0.4375 4 1 C4 3.31 4 5.62 4 8 C2.35 7.67 0.7 7.34 -1 7 C-1.04254356 5.00045254 -1.04080783 2.99958364 -1 1 C-0.67 0.67 -0.34 0.34 0 0 Z " fill="#392E1E" transform="translate(558,106)"/>
<path d="M0 0 C2.0625 0.4375 2.0625 0.4375 4 1 C4 3.31 4 5.62 4 8 C2.35 7.67 0.7 7.34 -1 7 C-1.04254356 5.00045254 -1.04080783 2.99958364 -1 1 C-0.67 0.67 -0.34 0.34 0 0 Z " fill="#392E1E" transform="translate(460,106)"/>
<path d="M0 0 C0.99 0 1.98 0 3 0 C3.66 2.97 4.32 5.94 5 9 C3.68 9 2.36 9 1 9 C1 7.68 1 6.36 1 5 C0.34 4.67 -0.32 4.34 -1 4 C-0.67 2.68 -0.34 1.36 0 0 Z " fill="#EFD809" transform="translate(413,108)"/>
<path d="M0 0 C1.65 0.33 3.3 0.66 5 1 C5 2.32 5 3.64 5 5 C4.34 5 3.68 5 3 5 C3 5.99 3 6.98 3 8 C2.34 8 1.68 8 1 8 C1 7.01 1 6.02 1 5 C0.34 5 -0.32 5 -1 5 C-0.67 3.35 -0.34 1.7 0 0 Z " fill="#D3C50C" transform="translate(410,103)"/>
<path d="M0 0 C0.66 0 1.32 0 2 0 C2 2.97 2 5.94 2 9 C2.99 9 3.98 9 5 9 C5 9.66 5 10.32 5 11 C3.35 11 1.7 11 0 11 C0 7.37 0 3.74 0 0 Z " fill="#FFF204" transform="translate(532,106)"/>
<path d="M0 0 C1.98 0.99 1.98 0.99 4 2 C4 3.65 4 5.3 4 7 C2.68 7.33 1.36 7.66 0 8 C0 5.36 0 2.72 0 0 Z " fill="#28331C" transform="translate(535,106)"/>
<path d="M0 0 C0.99 0 1.98 0 3 0 C3.125 7.75 3.125 7.75 2 10 C1.34 10 0.68 10 0 10 C0 6.7 0 3.4 0 0 Z " fill="#EAEE04" transform="translate(516,104)"/>
<path d="M0 0 C1.98 0 3.96 0 6 0 C5.67 1.65 5.34 3.3 5 5 C3.35 5 1.7 5 0 5 C0 3.35 0 1.7 0 0 Z " fill="#ED262D" transform="translate(59,71)"/>
<path d="M0 0 C1.98 0 3.96 0 6 0 C5.67 1.32 5.34 2.64 5 4 C3.35 4 1.7 4 0 4 C0 2.68 0 1.36 0 0 Z " fill="#F59F9D" transform="translate(65,109)"/>
<path d="M0 0 C2.31 0 4.62 0 7 0 C7 0.66 7 1.32 7 2 C5.35 2 3.7 2 2 2 C2 2.99 2 3.98 2 5 C1.34 5 0.68 5 0 5 C0 3.35 0 1.7 0 0 Z " fill="#FFEF04" transform="translate(352,104)"/>
<path d="M0 0 C0.33 1.32 0.66 2.64 1 4 C2.65 4 4.3 4 6 4 C6 4.66 6 5.32 6 6 C3.69 6 1.38 6 -1 6 C-0.67 4.02 -0.34 2.04 0 0 Z " fill="#FFF203" transform="translate(353,111)"/>
<path d="M0 0 C1.65 0 3.3 0 5 0 C5 1.32 5 2.64 5 4 C3.35 3.67 1.7 3.34 0 3 C0 2.01 0 1.02 0 0 Z " fill="#F38682" transform="translate(58,109)"/>
<path d="M0 0 C0.66 0.33 1.32 0.66 2 1 C2.125 3.875 2.125 3.875 2 7 C1.34 7.66 0.68 8.32 0 9 C-1.125 2.25 -1.125 2.25 0 0 Z " fill="#EFCB0F" transform="translate(564,106)"/>
<path d="M0 0 C0.66 0.33 1.32 0.66 2 1 C2.125 3.875 2.125 3.875 2 7 C1.34 7.66 0.68 8.32 0 9 C-1.125 2.25 -1.125 2.25 0 0 Z " fill="#EFCB0F" transform="translate(466,106)"/>
<path d="M0 0 C1.65 0 3.3 0 5 0 C5.33 1.32 5.66 2.64 6 4 C3.69 3.67 1.38 3.34 -1 3 C-0.67 2.01 -0.34 1.02 0 0 Z " fill="#FBEF03" transform="translate(558,104)"/>
<path d="M0 0 C1.65 0 3.3 0 5 0 C5.33 1.32 5.66 2.64 6 4 C3.69 3.67 1.38 3.34 -1 3 C-0.67 2.01 -0.34 1.02 0 0 Z " fill="#FBEF03" transform="translate(460,104)"/>
</svg>
